#N canvas 187 93 450 300 10;
#X obj 173 194 sendOSC;
#X msg 79 57 connect localhost 5005;
#X msg 236 32 send /filter 123;
#X floatatom 169 233 5 0 0 0 - - -;
#X floatatom 230 235 5 0 0 0 - - -;
#X msg 33 18 connect localhost 8000;
#X connect 0 0 3 0;
#X connect 0 1 4 0;
#X connect 1 0 0 0;
#X connect 2 0 0 0;
#X connect 5 0 0 0;
