#N canvas 25 469 956 409 10;
#X obj 173 194 sendOSC;
#X msg 33 94 connect localhost 5005;
#X floatatom 169 233 5 0 0 0 - - -;
#X floatatom 230 235 5 0 0 0 - - -;
#X msg 33 18 connect localhost 8000;
#X msg 31 168 disconnect;
#X msg 299 16 send /ping;
#X msg 397 16 send /status;
#X msg 354 307 send /reset;
#X msg 328 106 send /pattern 0;
#X msg 314 155 send /pattern 1;
#X msg 545 202 send /set 0 0 0 0 0 0 0 0;
#X connect 0 0 2 0;
#X connect 0 1 3 0;
#X connect 1 0 0 0;
#X connect 4 0 0 0;
#X connect 5 0 0 0;
#X connect 6 0 0 0;
#X connect 7 0 0 0;
#X connect 8 0 0 0;
#X connect 9 0 0 0;
#X connect 10 0 0 0;
#X connect 11 0 0 0;
