#N canvas 147 459 640 405 10;
#X obj 173 194 sendOSC;
#X msg 33 94 connect localhost 5005;
#X floatatom 169 233 5 0 0 0 - - -;
#X floatatom 230 235 5 0 0 0 - - -;
#X msg 33 18 connect localhost 8000;
#X msg 299 52 send /figure 0;
#X msg 31 168 disconnect;
#X msg 217 20 send /ping;
#X msg 300 134 send /rot 0 1 10;
#X msg 299 96 send /set 0 1 10;
#X msg 298 180 send /reset 0 1 0;
#X msg 302 21 send /status;
#X msg 30 225 send /save;
#X msg 458 19 send /load;
#X connect 0 0 2 0;
#X connect 0 1 3 0;
#X connect 1 0 0 0;
#X connect 4 0 0 0;
#X connect 5 0 0 0;
#X connect 6 0 0 0;
#X connect 7 0 0 0;
#X connect 8 0 0 0;
#X connect 9 0 0 0;
#X connect 10 0 0 0;
#X connect 11 0 0 0;
#X connect 12 0 0 0;
#X connect 13 0 0 0;
